<svg width="24" height="24" viewBox="0 0 24 24" fill="none" xmlns="http://www.w3.org/2000/svg">
<g clip-path="url(#clip0_1_125)">
<path d="M11.9333 11.5333C13.7333 11.5333 15.1333 10.0666 15.1333 8.26665C15.1333 6.46665 13.6667 5.06665 11.8667 5.06665C10.0667 5.06665 8.66666 6.53332 8.66666 8.26665C8.66666 10.0666 10.1333 11.5333 11.9333 11.5333ZM11.8667 6.39998C11.9333 6.39998 11.9333 6.39998 11.8667 6.39998C12.9333 6.39998 13.8 7.26665 13.8 8.33332C13.8 9.39998 12.9333 10.2 11.8667 10.2C10.8 10.2 10 9.33332 10 8.33332C10 7.26665 10.8667 6.39998 11.8667 6.39998Z" fill="white"/>
<path d="M21.8 11.1334C20.5333 10 18.8667 9.40002 17.1333 9.46669H16.6C16.4667 10 16.2667 10.4667 16 10.8667C16.4 10.8 16.7333 10.8 17.1333 10.8C18.4 10.7334 19.6667 11.1334 20.6667 11.8667V16.6667H22V11.3334L21.8 11.1334Z" fill="white"/>
<path d="M15.6 5.20003C15.9333 4.40003 16.8667 4.00003 17.7333 4.33337C18.5333 4.6667 18.9333 5.60003 18.6 6.4667C18.3333 7.0667 17.7333 7.4667 17.1333 7.4667C17 7.4667 16.8 7.4667 16.6667 7.40003C16.7333 7.73337 16.7333 8.0667 16.7333 8.33337V8.73337C16.8667 8.73337 17 8.80003 17.1333 8.80003C18.8 8.80003 20.1333 7.4667 20.1333 5.8667C20.1333 4.20003 18.8 2.8667 17.2 2.8667C16.1333 2.8667 15.2 3.40003 14.6667 4.33337C15 4.53337 15.3333 4.80003 15.6 5.20003Z" fill="white"/>
<path d="M8 10.9333C7.73333 10.5333 7.53333 10.0667 7.4 9.53335H6.86667C5.13333 9.46668 3.46667 10.0667 2.2 11.1333L2 11.3333V16.6667H3.33333V11.8667C4.4 11.1333 5.6 10.7333 6.86667 10.8C7.26667 10.8 7.66667 10.8667 8 10.9333Z" fill="white"/>
<path d="M6.86667 8.73336C7 8.73336 7.13333 8.73336 7.26667 8.66669V8.26669C7.26667 7.93336 7.26667 7.60003 7.33333 7.33336C7.2 7.40002 7 7.40003 6.86667 7.40003C6 7.40003 5.26667 6.66669 5.26667 5.80002C5.26667 4.93336 6 4.20003 6.86667 4.20003C7.53333 4.20003 8.13333 4.60003 8.4 5.20003C8.66667 4.86669 9.06667 4.53336 9.4 4.26669C8.53334 2.86669 6.73333 2.40003 5.33333 3.26669C3.93333 4.13336 3.46667 5.93336 4.33333 7.33336C4.86667 8.20003 5.8 8.73336 6.86667 8.73336Z" fill="white"/>
<path d="M17.4 15.1333L17.2667 14.9333C15.9333 13.4667 14.0667 12.6 12.0667 12.6667C10.0667 12.6 8.13333 13.4667 6.8 14.9333L6.66666 15.1333V20.2C6.66666 20.8 7.13333 21.3333 7.8 21.3333H16.3333C16.9333 21.3333 17.4667 20.8 17.4667 20.2V15.1333H17.4ZM16.0667 20H8V15.6C9.06666 14.5333 10.5333 14 12.0667 14C13.5333 13.9333 15 14.5333 16.0667 15.6V20Z" fill="white"/>
</g>
<defs>
<clipPath id="clip0_1_125">
<rect width="24" height="24" fill="white"/>
</clipPath>
</defs>
</svg>
