<svg width="25" height="25" viewBox="0 0 25 25" fill="none" xmlns="http://www.w3.org/2000/svg">
<path d="M12.6774 8.32031C11.9357 8.32031 11.2107 8.54025 10.594 8.9523C9.9773 9.36436 9.49665 9.95003 9.21282 10.6353C8.92899 11.3205 8.85473 12.0745 8.99942 12.8019C9.14412 13.5293 9.50127 14.1975 10.0257 14.722C10.5502 15.2464 11.2184 15.6036 11.9458 15.7483C12.6732 15.893 13.4272 15.8187 14.1124 15.5349C14.7977 15.251 15.3833 14.7704 15.7954 14.1537C16.2074 13.537 16.4274 12.812 16.4274 12.0703C16.4274 11.0758 16.0323 10.1219 15.329 9.41866C14.6258 8.7154 13.6719 8.32031 12.6774 8.32031ZM12.6774 14.3203C12.2324 14.3203 11.7973 14.1884 11.4273 13.9411C11.0573 13.6939 10.7689 13.3425 10.5986 12.9314C10.4283 12.5202 10.3838 12.0678 10.4706 11.6314C10.5574 11.1949 10.7717 10.794 11.0864 10.4793C11.401 10.1647 11.802 9.95036 12.2384 9.86355C12.6749 9.77673 13.1273 9.82129 13.5384 9.99158C13.9495 10.1619 14.3009 10.4503 14.5482 10.8203C14.7954 11.1903 14.9274 11.6253 14.9274 12.0703C14.9274 12.667 14.6903 13.2393 14.2684 13.6613C13.8464 14.0833 13.2741 14.3203 12.6774 14.3203ZM23.1774 5.32031H2.17737C1.97846 5.32031 1.78769 5.39933 1.64704 5.53998C1.50639 5.68063 1.42737 5.8714 1.42737 6.07031V18.0703C1.42737 18.2692 1.50639 18.46 1.64704 18.6006C1.78769 18.7413 1.97846 18.8203 2.17737 18.8203H23.1774C23.3763 18.8203 23.567 18.7413 23.7077 18.6006C23.8484 18.46 23.9274 18.2692 23.9274 18.0703V6.07031C23.9274 5.8714 23.8484 5.68063 23.7077 5.53998C23.567 5.39933 23.3763 5.32031 23.1774 5.32031ZM18.8321 17.3203H6.52268C6.27087 16.4687 5.81 15.6936 5.18204 15.0656C4.55408 14.4377 3.77899 13.9768 2.92737 13.725V10.4156C3.77899 10.1638 4.55408 9.70294 5.18204 9.07498C5.81 8.44702 6.27087 7.67193 6.52268 6.82031H18.8321C19.0839 7.67193 19.5447 8.44702 20.1727 9.07498C20.8007 9.70294 21.5757 10.1638 22.4274 10.4156V13.725C21.5757 13.9768 20.8007 14.4377 20.1727 15.0656C19.5447 15.6936 19.0839 16.4687 18.8321 17.3203ZM22.4274 8.82375C21.5278 8.43693 20.8108 7.7199 20.4239 6.82031H22.4274V8.82375ZM4.93081 6.82031C4.54399 7.7199 3.82696 8.43693 2.92737 8.82375V6.82031H4.93081ZM2.92737 15.3169C3.82696 15.7037 4.54399 16.4207 4.93081 17.3203H2.92737V15.3169ZM20.4239 17.3203C20.8108 16.4207 21.5278 15.7037 22.4274 15.3169V17.3203H20.4239Z" fill="white"/>
</svg>
