<svg width="25" height="25" viewBox="0 0 25 25" fill="none" xmlns="http://www.w3.org/2000/svg">
<path d="M11.8856 20.981C11.8856 21.1799 11.8065 21.3706 11.6659 21.5113C11.5252 21.6519 11.3345 21.731 11.1356 21.731H5.13557C4.93665 21.731 4.74589 21.6519 4.60524 21.5113C4.46458 21.3706 4.38557 21.1799 4.38557 20.981V4.48096C4.38557 4.28204 4.46458 4.09128 4.60524 3.95063C4.74589 3.80997 4.93665 3.73096 5.13557 3.73096H11.1356C11.3345 3.73096 11.5252 3.80997 11.6659 3.95063C11.8065 4.09128 11.8856 4.28204 11.8856 4.48096C11.8856 4.67987 11.8065 4.87063 11.6659 5.01129C11.5252 5.15194 11.3345 5.23096 11.1356 5.23096H5.88557V20.231H11.1356C11.3345 20.231 11.5252 20.31 11.6659 20.4506C11.8065 20.5913 11.8856 20.782 11.8856 20.981ZM22.1662 12.2003L18.4162 8.45033C18.2755 8.3096 18.0846 8.23054 17.8856 8.23054C17.6865 8.23054 17.4957 8.3096 17.3549 8.45033C17.2142 8.59106 17.1351 8.78193 17.1351 8.98096C17.1351 9.17998 17.2142 9.37085 17.3549 9.51158L19.8253 11.981H11.1356C10.9367 11.981 10.7459 12.06 10.6052 12.2006C10.4646 12.3413 10.3856 12.532 10.3856 12.731C10.3856 12.9299 10.4646 13.1206 10.6052 13.2613C10.7459 13.4019 10.9367 13.481 11.1356 13.481H19.8253L17.3549 15.9503C17.2142 16.0911 17.1351 16.2819 17.1351 16.481C17.1351 16.68 17.2142 16.8709 17.3549 17.0116C17.4957 17.1523 17.6865 17.2314 17.8856 17.2314C18.0846 17.2314 18.2755 17.1523 18.4162 17.0116L22.1662 13.2616C22.2359 13.1919 22.2912 13.1092 22.329 13.0182C22.3667 12.9271 22.3862 12.8295 22.3862 12.731C22.3862 12.6324 22.3667 12.5348 22.329 12.4438C22.2912 12.3527 22.2359 12.27 22.1662 12.2003Z" fill="#FF0000"/>
</svg>
