<svg width="24" height="24" viewBox="0 0 24 24" fill="none" xmlns="http://www.w3.org/2000/svg">
<path d="M20.185 17.75C20.3839 17.75 20.5747 17.671 20.7153 17.5303C20.856 17.3897 20.935 17.1989 20.935 17C20.935 16.8011 20.856 16.6103 20.7153 16.4697C20.5747 16.329 20.3839 16.25 20.185 16.25V17.75ZM13.48 21.263C13.4474 21.3568 13.4337 21.4562 13.4398 21.5553C13.4458 21.6545 13.4716 21.7514 13.5154 21.8405C13.5593 21.9297 13.6204 22.0092 13.6952 22.0745C13.77 22.1398 13.8571 22.1896 13.9513 22.221C14.0456 22.2524 14.1451 22.2647 14.2442 22.2573C14.3432 22.25 14.4398 22.223 14.5283 22.1779C14.6169 22.1329 14.6956 22.0707 14.7599 21.9951C14.8242 21.9194 14.8729 21.8316 14.903 21.737L13.48 21.263ZM3.998 16.25C3.79909 16.25 3.60832 16.329 3.46767 16.4697C3.32702 16.6103 3.248 16.8011 3.248 17C3.248 17.1989 3.32702 17.3897 3.46767 17.5303C3.60832 17.671 3.79909 17.75 3.998 17.75V16.25ZM9.279 21.737C9.34379 21.9232 9.47932 22.0765 9.65626 22.1635C9.83319 22.2506 10.0373 22.2645 10.2244 22.2021C10.4115 22.1398 10.5665 22.0063 10.6559 21.8306C10.7453 21.6548 10.7618 21.4509 10.702 21.263L9.279 21.737ZM5.556 5.46C5.50455 5.26785 5.37887 5.10401 5.20662 5.00452C5.03437 4.90503 4.82965 4.87805 4.6375 4.9295C4.44535 4.98095 4.28151 5.10663 4.18202 5.27888C4.08253 5.45113 4.05555 5.65585 4.107 5.848L5.556 5.46ZM1.627 11.989C1.46111 12.0988 1.34563 12.27 1.30596 12.4649C1.2663 12.6599 1.3057 12.8626 1.4155 13.0285C1.5253 13.1944 1.6965 13.3099 1.89145 13.3495C2.08639 13.3892 2.28911 13.3498 2.455 13.24L1.627 11.989ZM19.934 5.849C19.9595 5.75386 19.966 5.65463 19.9531 5.55698C19.9402 5.45933 19.9082 5.36517 19.859 5.27988C19.8097 5.19459 19.7441 5.11984 19.666 5.05989C19.5878 4.99994 19.4986 4.95598 19.4035 4.9305C19.2113 4.87905 19.0066 4.90603 18.8344 5.00552C18.7491 5.05478 18.6743 5.12036 18.6144 5.19851C18.5544 5.27666 18.5105 5.36586 18.485 5.461L19.934 5.849ZM21.586 13.24C21.7519 13.3498 21.9546 13.3892 22.1496 13.3495C22.3445 13.3099 22.5157 13.1944 22.6255 13.0285C22.7353 12.8626 22.7747 12.6599 22.735 12.4649C22.6954 12.27 22.5799 12.0988 22.414 11.989L21.586 13.24ZM16.09 3.836C16.2495 3.72024 16.3571 3.54631 16.3894 3.35186C16.4217 3.1574 16.3762 2.95805 16.2626 2.79692C16.1491 2.63579 15.9766 2.52584 15.7826 2.49086C15.5886 2.45588 15.3887 2.49868 15.226 2.61L16.09 3.836ZM8.616 2.397C8.53705 2.33527 8.44654 2.28998 8.34979 2.26382C8.25305 2.23766 8.15205 2.23115 8.05274 2.24468C7.95344 2.25821 7.85786 2.2915 7.77165 2.34259C7.68543 2.39369 7.61033 2.46154 7.55078 2.54214C7.49122 2.62275 7.44843 2.71447 7.42492 2.81189C7.40142 2.90932 7.39768 3.01046 7.41392 3.10935C7.43016 3.20825 7.46605 3.30288 7.51948 3.38767C7.57291 3.47246 7.6428 3.54568 7.725 3.603L8.616 2.397ZM21.227 12C21.227 17.11 17.09 21.25 11.989 21.25V22.75C17.92 22.75 22.727 17.936 22.727 12H21.227ZM11.989 21.25C6.887 21.25 2.75 17.11 2.75 12H1.25C1.25 17.936 6.057 22.75 11.989 22.75V21.25ZM2.75 12C2.75 6.89 6.887 2.75 11.989 2.75V1.25C6.057 1.25 1.25 6.064 1.25 12H2.75ZM11.989 2.75C17.089 2.75 21.227 6.89 21.227 12H22.727C22.727 6.064 17.92 1.25 11.989 1.25V2.75ZM12.139 10.06L13.976 11.464L14.887 10.273L13.05 8.868L12.139 10.06ZM14.063 11.737L13.341 14.074L14.775 14.516L15.495 12.179L14.063 11.737ZM13.103 14.25H10.873V15.75H13.103V14.25ZM10.636 14.074L9.914 11.737L8.481 12.179L9.202 14.516L10.636 14.074ZM10 11.464L11.837 10.059L10.926 8.868L9.089 10.273L10 11.464ZM20.185 16.25H18.57V17.75H20.185V16.25ZM14.068 19.498L13.48 21.263L14.903 21.737L15.49 19.972L14.068 19.498ZM18.57 16.25C17.892 16.25 17.319 16.249 16.854 16.302C16.37 16.357 15.925 16.478 15.522 16.769L16.4 17.986C16.52 17.899 16.684 17.831 17.025 17.792C17.385 17.752 17.857 17.75 18.57 17.75V16.25ZM15.49 19.972C15.716 19.296 15.865 18.848 16.019 18.519C16.163 18.207 16.28 18.072 16.4 17.986L15.522 16.769C15.118 17.061 14.863 17.444 14.658 17.887C14.46 18.312 14.282 18.855 14.068 19.498L15.49 19.972ZM3.999 17.75H5.614V16.25H3.998L3.999 17.75ZM8.693 19.972L9.279 21.737L10.703 21.263L10.116 19.498L8.693 19.972ZM5.614 17.75C6.327 17.75 6.797 17.751 7.158 17.792C7.498 17.832 7.663 17.899 7.783 17.986L8.661 16.769C8.257 16.479 7.812 16.357 7.328 16.302C6.863 16.249 6.291 16.25 5.614 16.25V17.75ZM10.116 19.498C9.901 18.855 9.722 18.312 9.524 17.887C9.319 17.445 9.064 17.061 8.661 16.769L7.783 17.986C7.903 18.072 8.019 18.206 8.164 18.519C8.317 18.849 8.467 19.296 8.693 19.972L10.116 19.498ZM4.107 5.848L4.525 7.409L5.974 7.021L5.556 5.46L4.107 5.848ZM3.178 10.964L1.628 11.988L2.455 13.24L4.005 12.214L3.178 10.964ZM4.525 7.409C4.709 8.098 4.83 8.554 4.884 8.913C4.934 9.253 4.911 9.431 4.859 9.569L6.262 10.101C6.438 9.635 6.439 9.175 6.367 8.692C6.298 8.229 6.149 7.676 5.974 7.021L4.525 7.409ZM4.005 12.214C4.571 11.84 5.048 11.526 5.407 11.225C5.781 10.912 6.085 10.566 6.262 10.101L4.859 9.569C4.807 9.707 4.707 9.855 4.443 10.076C4.165 10.309 3.773 10.571 3.178 10.964L4.005 12.214ZM18.485 5.461L18.067 7.022L19.516 7.409L19.934 5.847L18.485 5.461ZM20.035 12.214L21.586 13.24L22.414 11.988L20.863 10.963L20.035 12.214ZM18.067 7.022C17.892 7.678 17.743 8.229 17.674 8.692C17.602 9.175 17.603 9.636 17.779 10.101L19.182 9.569C19.13 9.431 19.107 9.254 19.157 8.913C19.211 8.553 19.332 8.098 19.516 7.409L18.067 7.022ZM20.863 10.963C20.269 10.57 19.876 10.309 19.598 10.076C19.334 9.856 19.234 9.707 19.182 9.569L17.779 10.101C17.956 10.566 18.26 10.912 18.634 11.225C18.993 11.526 19.47 11.841 20.036 12.215L20.863 10.963ZM15.226 2.61L13.906 3.542L14.77 4.767L16.09 3.836L15.226 2.61ZM10.111 3.5L8.615 2.398L7.725 3.604L9.22 4.707L10.111 3.5ZM13.905 3.542C13.323 3.952 12.937 4.223 12.619 4.397C12.317 4.562 12.144 4.601 11.997 4.6L11.98 6.1C12.478 6.105 12.91 5.947 13.339 5.713C13.749 5.488 14.216 5.158 14.769 4.767L13.905 3.542ZM9.22 4.707C9.766 5.11 10.225 5.45 10.63 5.684C11.053 5.927 11.483 6.094 11.98 6.1L11.997 4.6C11.849 4.598 11.677 4.555 11.379 4.384C11.064 4.203 10.684 3.923 10.111 3.5L9.22 4.707ZM13.976 11.464C14.0173 11.4956 14.0477 11.5393 14.063 11.589L15.496 11.146C15.3886 10.7988 15.1757 10.4937 14.887 10.273L13.976 11.464ZM14.063 11.589C14.0779 11.6372 14.0779 11.6888 14.063 11.737L15.496 12.179C15.5999 11.8425 15.5999 11.4825 15.496 11.146L14.063 11.589ZM18.193 9.142L14.493 10.675L15.066 12.061L18.768 10.528L18.193 9.142ZM13.05 8.868C12.7451 8.63476 12.3719 8.50826 11.988 8.508V10.008C12.0428 10.0076 12.0961 10.0259 12.139 10.06L13.05 8.868ZM11.988 8.508C11.615 8.508 11.24 8.628 10.927 8.868L11.837 10.059C11.8808 10.0261 11.9342 10.0086 11.989 10.009L11.988 8.508ZM12.738 9.258V5.35H11.238V9.258H12.738ZM13.341 14.074C13.3261 14.1226 13.2968 14.1655 13.257 14.197L14.185 15.375C14.4643 15.1552 14.6701 14.8556 14.775 14.516L13.341 14.074ZM13.257 14.197C13.2133 14.2312 13.1595 14.2498 13.104 14.25V15.75C13.506 15.75 13.884 15.612 14.185 15.375L13.257 14.197ZM16.529 16.887L14.289 14.295L13.154 15.277L15.394 17.868L16.529 16.887ZM10.873 14.25C10.8175 14.2498 10.7637 14.2312 10.72 14.197L9.792 15.375C10.092 15.612 10.471 15.75 10.873 15.75V14.25ZM10.72 14.197C10.6802 14.1655 10.6509 14.1226 10.636 14.074L9.202 14.516C9.31 14.865 9.519 15.161 9.792 15.376L10.72 14.197ZM8.81 17.84L10.846 15.248L9.666 14.322L7.631 16.913L8.81 17.84ZM9.914 11.736C9.89906 11.6878 9.89906 11.6372 9.914 11.589L8.481 11.145C8.37706 11.4815 8.37706 11.8425 8.481 12.179L9.914 11.736ZM9.914 11.589C9.92929 11.5393 9.95971 11.4946 10.001 11.463L9.09 10.273C8.80111 10.494 8.58824 10.7975 8.481 11.145L9.914 11.589ZM9.489 10.676L5.852 9.144L5.269 10.526L8.906 12.059L9.489 10.676Z" fill="white"/>
</svg>
