<svg width="25" height="25" viewBox="0 0 25 25" fill="none" xmlns="http://www.w3.org/2000/svg">
<g clip-path="url(#clip0_1_109)">
<path d="M11.7009 15.1924C12.7061 14.5232 13.4692 13.5483 13.8775 12.4118C14.2857 11.2754 14.3174 10.0377 13.9678 8.88182C13.6183 7.72595 12.906 6.71326 11.9364 5.9935C10.9668 5.27374 9.79125 4.88513 8.58368 4.88513C7.37611 4.88513 6.20059 5.27374 5.23097 5.9935C4.26134 6.71326 3.54908 7.72595 3.19952 8.88182C2.84995 10.0377 2.88164 11.2754 3.2899 12.4118C3.69815 13.5483 4.4613 14.5232 5.46649 15.1924C3.6482 15.8626 2.09534 17.1027 1.03962 18.7277C0.984132 18.8102 0.945592 18.9029 0.926237 19.0004C0.906883 19.0978 0.907099 19.1982 0.926875 19.2956C0.94665 19.393 0.98559 19.4855 1.04143 19.5678C1.09727 19.65 1.1689 19.7203 1.25215 19.7746C1.3354 19.8289 1.42862 19.8661 1.52638 19.8841C1.62413 19.902 1.72449 19.9004 1.8216 19.8792C1.91872 19.858 2.01065 19.8178 2.09207 19.7608C2.17349 19.7037 2.24276 19.6311 2.29587 19.5471C2.97686 18.4997 3.9087 17.639 5.00678 17.0432C6.10485 16.4474 7.33437 16.1353 8.58368 16.1353C9.83299 16.1353 11.0625 16.4474 12.1606 17.0432C13.2587 17.639 14.1905 18.4997 14.8715 19.5471C14.9815 19.7106 15.1514 19.8242 15.3445 19.8634C15.5376 19.9026 15.7384 19.8643 15.9035 19.7566C16.0685 19.649 16.1846 19.4807 16.2266 19.2881C16.2685 19.0956 16.233 18.8943 16.1277 18.7277C15.072 17.1027 13.5192 15.8626 11.7009 15.1924ZM4.45868 10.5124C4.45868 9.69657 4.70061 8.89904 5.15387 8.22069C5.60713 7.54233 6.25137 7.01362 7.00511 6.70141C7.75886 6.3892 8.58826 6.30751 9.38843 6.46668C10.1886 6.62584 10.9236 7.01871 11.5005 7.5956C12.0774 8.17249 12.4703 8.90749 12.6294 9.70767C12.7886 10.5078 12.7069 11.3372 12.3947 12.091C12.0825 12.8447 11.5538 13.489 10.8754 13.9422C10.1971 14.3955 9.39953 14.6374 8.58368 14.6374C7.49004 14.6362 6.44155 14.2012 5.66823 13.4279C4.89492 12.6545 4.45992 11.6061 4.45868 10.5124ZM24.1593 19.7655C23.9927 19.8742 23.7898 19.9122 23.5952 19.8712C23.4005 19.8303 23.2302 19.7137 23.1215 19.5471C22.4413 18.4991 21.5096 17.638 20.4113 17.0425C19.313 16.4469 18.0831 16.1357 16.8337 16.1374C16.6348 16.1374 16.444 16.0584 16.3034 15.9177C16.1627 15.7771 16.0837 15.5863 16.0837 15.3874C16.0837 15.1885 16.1627 14.9977 16.3034 14.8571C16.444 14.7164 16.6348 14.6374 16.8337 14.6374C17.4412 14.6368 18.041 14.5021 18.5904 14.2428C19.1397 13.9836 19.625 13.6062 20.0116 13.1376C20.3982 12.669 20.6766 12.1208 20.8267 11.5322C20.9769 10.9436 20.9952 10.3291 20.8804 9.73255C20.7656 9.13604 20.5204 8.57225 20.1624 8.08147C19.8044 7.5907 19.3424 7.18505 18.8095 6.89351C18.2765 6.60197 17.6858 6.43174 17.0794 6.39498C16.4731 6.35821 15.8661 6.45583 15.3018 6.68085C15.2098 6.72062 15.1108 6.74155 15.0105 6.7424C14.9103 6.74324 14.8109 6.72399 14.7183 6.68578C14.6256 6.64757 14.5416 6.59118 14.4711 6.51993C14.4006 6.44868 14.3451 6.36403 14.3078 6.27097C14.2706 6.17791 14.2524 6.07833 14.2543 5.97812C14.2563 5.87791 14.2782 5.7791 14.319 5.68753C14.3597 5.59595 14.4184 5.51348 14.4916 5.44497C14.5647 5.37646 14.6509 5.32331 14.7449 5.28866C16.0363 4.77365 17.4726 4.75512 18.7769 5.23664C20.0811 5.71816 21.1608 6.66562 21.8077 7.89624C22.4546 9.12686 22.6228 10.5534 22.2799 11.9008C21.937 13.2481 21.1073 14.4207 19.9509 15.1924C21.7692 15.8626 23.322 17.1027 24.3777 18.7277C24.4864 18.8943 24.5244 19.0972 24.4834 19.2919C24.4425 19.4865 24.3259 19.6569 24.1593 19.7655Z" fill="white"/>
</g>
<defs>
<clipPath id="clip0_1_109">
<rect width="24" height="24" fill="white" transform="translate(0.708679 0.387451)"/>
</clipPath>
</defs>
</svg>
